<?xml version="1.0" standalone="no"?>
<!DOCTYPE svg PUBLIC "-//W3C//DTD SVG 20010904//EN"
 "http://www.w3.org/TR/2001/REC-SVG-20010904/DTD/svg10.dtd">
<svg version="1.0" xmlns="http://www.w3.org/2000/svg"
 width="1000.000000pt" height="1000.000000pt" viewBox="0 0 1000.000000 1000.000000"
 preserveAspectRatio="xMidYMid meet">
<metadata>
Created by potrace 1.11, written by Peter Selinger 2001-2013
</metadata>
<g transform="translate(0.000000,1000.000000) scale(0.100000,-0.100000)"
fill="#000000" stroke="none">
<path d="M4659 8706 c-2 -2 -40 -7 -84 -10 -44 -4 -93 -10 -110 -13 -16 -3
-41 -6 -55 -8 -14 -2 -41 -6 -60 -9 -20 -4 -52 -8 -71 -10 -20 -2 -40 -5 -45
-8 -5 -4 -25 -9 -44 -12 -19 -3 -46 -8 -60 -11 -14 -4 -38 -9 -55 -12 -16 -2
-35 -9 -41 -14 -6 -5 -13 -7 -15 -4 -3 2 -23 -1 -45 -7 -21 -6 -41 -12 -44
-13 -47 -10 -110 -30 -110 -35 0 -3 -10 -6 -22 -7 -13 -1 -57 -13 -98 -27 -76
-27 -86 -31 -152 -60 -20 -9 -39 -16 -43 -16 -8 0 -24 -7 -187 -84 -65 -30
-118 -57 -118 -59 0 -2 65 -4 145 -3 80 1 145 -1 145 -5 0 -6 -64 -43 -127
-73 -13 -6 -23 -14 -23 -18 0 -5 -7 -8 -15 -8 -8 0 -15 -5 -15 -11 0 -5 -4 -8
-9 -4 -5 3 -12 2 -14 -3 -3 -4 -74 -7 -159 -6 -153 1 -153 1 -210 -30 -32 -17
-58 -34 -58 -38 0 -5 -5 -8 -10 -8 -6 0 -35 -18 -65 -40 -30 -22 -58 -40 -64
-40 -5 0 -11 -4 -13 -8 -1 -4 -32 -30 -68 -57 -36 -27 -67 -52 -70 -55 -3 -3
-18 -16 -35 -29 -70 -54 -275 -239 -314 -284 -9 -10 -38 -42 -66 -72 -80 -85
-117 -127 -160 -180 -22 -27 -46 -56 -52 -63 -7 -7 -13 -16 -13 -20 0 -4 -13
-22 -29 -39 -15 -18 -46 -59 -67 -90 -22 -32 -42 -59 -46 -61 -5 -2 -8 -10 -8
-17 0 -7 -4 -15 -8 -17 -5 -1 -26 -32 -48 -68 -21 -36 -43 -68 -47 -71 -19
-13 14 -16 200 -15 106 1 193 -1 193 -4 0 -3 -9 -19 -19 -36 l-19 -32 -189 0
c-239 -1 -223 0 -223 -16 0 -8 -3 -16 -7 -18 -5 -1 -17 -21 -28 -43 -10 -22
-28 -53 -40 -70 -11 -16 -19 -31 -17 -33 2 -1 -13 -36 -32 -76 -20 -41 -36
-79 -36 -85 0 -6 -5 -11 -11 -11 -6 0 -9 -7 -5 -15 3 -8 -1 -21 -9 -29 -8 -8
-15 -20 -15 -26 0 -6 -5 -21 -12 -33 -7 -12 -13 -31 -15 -41 -2 -11 -7 -24
-12 -30 -5 -6 -14 -29 -20 -51 -7 -22 -16 -49 -21 -60 -19 -47 -66 -197 -73
-235 -3 -14 -9 -36 -15 -50 -5 -14 -12 -46 -16 -72 -4 -26 -11 -50 -17 -53 -5
-4 -7 -10 -5 -13 2 -4 -2 -34 -9 -67 -8 -33 -14 -62 -15 -65 0 -3 -127 -6
-281 -7 -155 -1 -284 -5 -287 -7 -2 -3 -5 -19 -6 -35 0 -17 -3 -31 -6 -31 -3
0 -6 -9 -7 -20 -2 -20 4 -20 283 -20 l285 0 -6 -47 c-4 -27 -8 -66 -10 -88 -1
-22 -4 -40 -5 -40 -1 0 -4 -18 -5 -40 -20 -248 -19 -539 1 -725 3 -30 7 -68 9
-85 8 -78 15 -132 20 -155 3 -14 8 -41 10 -60 3 -19 7 -44 10 -56 2 -12 7 -39
11 -60 3 -21 10 -44 15 -50 5 -6 7 -13 4 -15 -2 -3 1 -22 6 -44 5 -22 12 -51
15 -65 2 -14 7 -32 11 -40 3 -8 7 -21 9 -29 1 -8 6 -26 10 -40 4 -14 7 -29 6
-33 -1 -5 3 -8 9 -8 5 0 8 -4 5 -8 -8 -14 111 -344 150 -414 8 -16 13 -28 10
-28 -2 0 9 -27 25 -60 18 -38 35 -60 46 -61 10 -1 50 -1 88 0 97 1 110 -4 129
-43 9 -19 16 -36 16 -38 0 -2 -45 -3 -100 -3 -55 0 -100 -4 -100 -8 0 -21 195
-348 212 -355 4 -2 8 -8 8 -13 0 -5 16 -31 36 -59 l36 -50 -246 -2 -246 -3 39
-52 c22 -29 46 -60 55 -69 9 -8 16 -19 16 -23 0 -4 111 -7 246 -7 206 1 249
-1 263 -14 9 -8 41 -44 71 -80 30 -35 71 -81 90 -101 19 -21 42 -46 51 -56 30
-34 204 -198 269 -253 35 -30 70 -59 76 -65 7 -5 29 -23 49 -40 21 -16 43 -34
49 -40 7 -5 21 -16 31 -23 11 -7 33 -21 49 -32 28 -18 52 -19 489 -19 l459 -1
76 -50 76 -50 -459 0 c-457 0 -460 -1 -435 -20 14 -10 44 -29 68 -41 23 -12
42 -26 42 -31 0 -5 5 -6 10 -3 6 3 10 1 10 -6 0 -7 3 -9 6 -6 4 4 19 -2 33
-12 50 -35 263 -139 401 -196 36 -14 84 -35 108 -46 24 -11 47 -17 52 -14 5 3
11 1 15 -5 4 -6 11 -8 16 -5 5 4 9 1 9 -5 0 -6 5 -8 10 -5 6 3 10 1 10 -5 0
-6 4 -9 10 -5 5 3 17 1 27 -5 19 -10 169 -56 238 -71 50 -12 70 -17 70 -19 0
-1 11 -4 25 -6 28 -5 31 -5 115 -24 33 -7 69 -14 80 -15 11 -1 20 -4 20 -5 0
-1 20 -4 45 -5 25 -2 46 -4 48 -5 4 -4 14 -6 72 -13 30 -4 78 -11 105 -15 64
-9 1031 -8 1110 1 33 4 78 10 100 13 22 4 54 8 70 10 17 1 31 3 33 4 1 2 16 4
32 5 17 1 31 3 33 5 3 3 28 8 72 15 22 3 54 10 70 15 17 4 48 11 70 15 22 4
44 10 50 13 5 3 16 7 25 8 38 4 323 90 375 113 25 11 88 36 95 36 3 1 21 8 40
17 19 8 64 28 100 43 36 15 68 32 72 39 4 6 8 8 8 3 0 -7 188 89 283 145 26
15 52 28 56 28 5 0 11 7 15 15 3 8 13 15 21 15 9 0 23 7 31 15 13 13 81 15
484 15 413 0 470 2 484 16 9 8 16 12 16 7 0 -4 4 -3 8 2 4 6 29 25 56 43 l49
32 -119 0 c-65 0 -273 1 -462 1 l-343 1 53 39 c29 22 63 48 76 57 13 9 32 24
42 32 9 8 39 33 66 55 119 99 315 291 409 399 28 32 67 77 87 100 21 22 38 44
38 47 0 3 9 17 21 30 49 57 191 254 214 299 l13 25 -63 -1 c-35 -1 -68 -5 -74
-9 -6 -3 -11 -3 -11 2 0 4 -56 7 -125 6 -102 -1 -125 1 -125 13 0 8 5 14 10
14 6 0 14 8 18 18 4 9 17 32 27 50 17 28 25 33 53 30 17 -2 32 0 32 4 0 5 8 4
19 -1 10 -6 21 -8 24 -5 3 3 71 5 151 5 141 -2 145 -1 158 21 7 13 13 25 13
28 0 3 15 30 33 61 17 31 32 62 32 68 0 6 5 11 10 11 6 0 10 5 10 10 0 6 18
48 40 95 50 106 112 259 141 350 13 39 25 72 28 75 3 3 8 12 9 20 2 8 6 24 9
35 2 11 5 25 6 30 2 6 6 16 10 22 5 7 6 13 2 13 -3 0 -1 8 4 18 6 11 13 32 16
48 8 38 13 58 15 62 2 1 3 5 4 10 2 6 13 60 21 97 18 82 28 134 30 151 2 11 8
45 14 75 7 31 14 82 16 115 2 32 5 59 6 59 2 0 6 44 13 131 l5 60 -82 1 c-136
1 -128 0 -121 29 4 14 8 45 9 68 2 22 3 43 4 46 1 3 45 5 98 5 l98 0 -2 155
c-1 136 -4 192 -16 325 -1 17 -6 35 -10 42 -4 6 -3 14 3 18 6 4 7 12 3 18 -4
6 -8 23 -10 37 -10 87 -18 141 -28 185 -3 17 -9 46 -11 65 -3 19 -10 53 -16
75 -6 22 -12 45 -13 50 -1 6 -3 12 -4 15 -3 6 -7 23 -14 63 -3 15 -13 54 -23
85 -9 31 -17 62 -19 67 -1 6 -4 17 -7 25 -3 8 -23 65 -43 125 -38 112 -42 122
-90 233 -15 35 -25 65 -23 67 2 3 90 5 196 5 106 1 192 4 192 7 0 3 -9 17 -19
32 l-19 26 -191 0 c-211 0 -205 -2 -226 65 -4 14 -11 27 -15 30 -4 3 -18 28
-31 55 -30 62 -101 188 -109 195 -4 3 -21 30 -38 60 -36 60 -53 88 -65 104
-110 153 -196 266 -247 326 -36 41 -74 86 -85 99 -52 61 -339 341 -351 341 -2
0 -18 14 -34 30 -16 17 -32 30 -36 30 -4 0 -23 15 -43 33 -20 17 -49 41 -65
52 -15 11 -47 34 -70 51 -60 45 -140 100 -151 105 -25 11 -85 52 -85 58 0 4
63 6 141 6 77 0 142 2 144 6 4 6 -148 95 -195 114 -14 6 -93 10 -180 9 l-155
-1 -82 43 c-45 23 -84 39 -87 36 -3 -3 -6 1 -6 8 0 7 -2 11 -6 8 -3 -3 -32 7
-65 23 -32 16 -64 29 -69 29 -6 0 -19 5 -30 10 -44 22 -57 27 -102 41 -27 7
-48 16 -48 20 0 3 -6 6 -12 7 -20 1 -48 9 -111 31 -32 11 -89 28 -125 36 -37
9 -75 21 -85 26 -11 6 -21 8 -24 6 -2 -3 -19 -1 -36 4 -32 10 -50 14 -99 23
-15 2 -31 7 -35 9 -5 3 -32 8 -62 11 -29 4 -56 8 -60 10 -5 3 -67 12 -161 22
-19 3 -60 7 -90 11 -57 6 -985 15 -991 9z m591 -1191 c36 -3 74 -7 85 -9 11
-2 36 -7 55 -10 57 -10 94 -17 105 -20 6 -1 28 -6 50 -10 39 -7 135 -33 165
-44 8 -3 21 -4 28 -3 6 1 12 -3 12 -9 0 -5 3 -9 8 -8 10 3 125 -34 137 -44 5
-4 17 -8 27 -8 10 0 18 -5 18 -11 0 -5 4 -8 9 -5 5 4 22 0 38 -8 15 -9 78 -39
138 -69 61 -30 126 -64 145 -75 19 -12 51 -31 70 -42 34 -20 55 -34 116 -75
45 -30 195 -146 233 -180 19 -16 82 -78 140 -136 97 -97 135 -139 189 -209
l20 -24 196 -1 196 0 26 -28 c18 -19 21 -29 12 -32 -7 -3 -95 -6 -196 -7
l-184 -3 36 -46 c19 -26 32 -49 29 -53 -4 -3 -1 -6 5 -6 6 0 19 -15 28 -32 9
-18 20 -35 23 -38 23 -19 180 -340 212 -435 7 -22 19 -48 25 -59 7 -10 10 -25
7 -32 -3 -8 1 -14 8 -14 7 0 9 -3 6 -6 -3 -4 -2 -14 2 -23 5 -9 11 -29 14 -46
3 -16 10 -41 15 -55 10 -22 40 -153 57 -245 9 -45 18 -117 18 -142 1 -13 3
-23 7 -23 5 0 6 -13 13 -232 2 -81 1 -151 -2 -156 -3 -5 -46 -9 -94 -8 -49 1
-93 -1 -97 -4 -13 -8 -19 -140 -6 -141 6 -1 47 -2 91 -3 100 -3 107 -4 101
-14 -3 -5 -7 -31 -10 -58 -2 -27 -7 -61 -10 -74 -3 -14 -8 -43 -12 -65 -3 -22
-7 -44 -8 -50 -3 -12 -16 -72 -21 -100 -2 -11 -4 -21 -5 -22 -2 -2 -3 -6 -4
-10 -16 -72 -31 -120 -39 -130 -5 -7 -7 -13 -4 -13 6 0 -55 -177 -72 -208 -6
-11 -7 -22 -4 -26 3 -3 1 -6 -5 -6 -7 0 -12 -9 -12 -20 0 -11 -4 -20 -10 -20
-5 0 -10 -7 -10 -15 0 -15 -67 -156 -79 -165 -3 -3 -7 -11 -9 -19 -4 -18 -125
-211 -176 -281 -51 -70 -49 -68 -88 -115 -18 -22 -37 -46 -43 -53 -5 -7 -40
-45 -77 -84 -38 -40 -68 -74 -68 -76 0 -2 -10 -12 -22 -23 -21 -17 -42 -18
-227 -19 l-203 0 -38 -39 c-21 -22 -40 -38 -42 -36 -2 1 -16 -10 -33 -26 l-29
-28 107 0 c59 0 112 -3 117 -6 5 -3 11 -2 13 2 3 5 40 6 83 5 l77 -4 -26 -21
c-14 -12 -35 -29 -47 -37 -12 -8 -36 -26 -53 -38 -50 -37 -131 -88 -141 -89
-5 -1 -12 -5 -15 -11 -29 -44 -509 -266 -566 -262 -3 0 -19 -7 -35 -15 -17 -9
-30 -13 -30 -11 0 3 -12 1 -27 -5 -16 -6 -35 -12 -43 -15 -70 -18 -90 -21 -94
-16 -4 3 -6 0 -6 -7 0 -7 -3 -10 -7 -8 -5 3 -51 -3 -103 -13 -52 -10 -98 -16
-102 -14 -4 3 -8 2 -8 -3 0 -22 -295 -21 -425 2 -182 32 -189 33 -275 57 -36
10 -76 21 -89 24 -14 3 -28 7 -33 10 -4 3 -18 7 -30 9 -13 3 -32 9 -43 14 -11
5 -69 28 -130 52 l-109 43 -251 1 -250 1 -70 36 c-38 20 -101 54 -140 77 l-70
40 245 3 c160 2 238 6 225 12 -11 5 -22 12 -25 16 -3 4 -34 26 -70 50 -119 80
-243 184 -365 306 -109 109 -110 100 10 99 114 -1 113 -2 55 56 -24 24 -30 25
-120 24 -93 -1 -130 6 -130 25 0 5 -13 23 -30 40 -17 17 -30 34 -30 39 0 5
-13 24 -30 42 -16 19 -30 39 -30 46 0 6 -4 13 -8 15 -10 4 -77 111 -127 203
-70 128 -83 155 -78 155 3 0 -1 10 -9 22 -8 13 -29 61 -47 108 -18 47 -37 94
-41 105 -15 37 -39 110 -51 155 -16 58 -16 60 -22 90 -3 14 -6 26 -6 28 -1 1
-1 4 -2 7 0 2 -4 19 -9 36 -5 18 -12 48 -15 68 -3 20 -8 48 -10 61 -7 36 -17
111 -19 140 -1 14 -4 30 -6 35 -3 6 -5 45 -5 87 0 43 -2 78 -5 78 -3 0 -4 42
-3 92 1 51 3 93 3 93 0 0 3 38 6 85 4 83 7 109 17 180 3 19 9 58 12 85 4 28 9
53 11 56 2 4 6 23 9 43 l6 36 -282 0 -281 0 6 28 c3 15 8 37 10 50 2 12 6 25
9 28 3 3 131 6 285 6 307 0 285 -4 296 53 1 6 5 17 8 25 15 38 42 116 45 128
9 37 16 55 51 132 14 30 26 61 28 68 1 7 16 37 33 67 17 30 30 56 29 57 -4 5
104 187 118 199 8 6 14 17 14 24 0 29 237 323 333 413 l37 35 198 0 197 -1 33
29 c17 16 32 32 32 37 0 4 -85 7 -190 6 -104 0 -190 0 -190 2 0 6 46 49 86 80
97 76 204 154 213 154 5 0 11 4 13 8 9 22 367 213 418 224 8 2 17 6 20 9 3 3
50 22 105 41 139 50 165 58 165 51 0 -3 6 0 13 6 8 6 31 13 53 17 21 3 44 9
49 14 6 4 20 6 33 5 12 -1 22 1 22 5 0 4 6 7 13 7 14 0 71 9 142 22 28 5 57
10 65 10 23 0 124 12 127 15 4 4 103 -1 183 -9z"/>
<path d="M4828 6594 c-2 -1 -30 -5 -63 -8 -33 -3 -71 -7 -85 -11 -14 -3 -42
-8 -63 -10 -21 -3 -73 -15 -115 -26 -42 -12 -81 -22 -87 -23 -5 -1 -37 -12
-70 -24 -80 -30 -90 -34 -90 -32 0 13 -333 -178 -363 -207 -9 -9 -55 -12 -165
-12 -96 0 -153 -4 -155 -11 -2 -5 -8 -10 -14 -10 -5 0 -26 -16 -46 -35 -20
-19 -40 -35 -44 -35 -5 0 -8 -5 -8 -11 0 -6 23 -9 58 -8 33 1 64 -1 70 -5 6
-3 13 -3 15 1 3 5 35 6 71 5 l66 -4 -63 -61 c-34 -34 -80 -84 -102 -112 -22
-27 -43 -52 -46 -55 -11 -8 -140 -210 -146 -228 -3 -9 -13 -25 -21 -34 -8 -10
-12 -18 -7 -18 4 0 1 -10 -7 -22 -8 -13 -24 -48 -36 -78 -12 -30 -27 -68 -33
-85 -16 -38 -14 -33 -24 -80 -4 -22 -10 -44 -14 -50 -3 -5 -6 -14 -7 -20 -1
-5 -7 -39 -14 -75 -22 -119 -24 -134 -24 -310 0 -156 8 -273 20 -292 2 -3 7
-28 10 -55 3 -26 9 -50 13 -53 5 -3 7 -15 6 -27 -1 -13 2 -23 7 -23 4 0 7 -3
6 -7 -9 -33 148 -384 193 -432 11 -12 17 -21 14 -21 -9 0 96 -135 147 -191
l27 -29 -27 -1 c-15 0 -109 0 -210 0 l-183 1 23 -29 c13 -16 33 -35 46 -42 12
-7 22 -19 22 -27 0 -9 3 -13 6 -9 3 3 14 -3 25 -14 17 -17 36 -19 222 -20 111
-1 207 -2 213 -3 11 -1 47 -27 103 -72 43 -34 149 -104 159 -104 5 0 15 -7 22
-15 7 -8 16 -13 20 -10 5 3 10 1 12 -3 3 -7 103 -58 166 -83 12 -5 32 -13 45
-19 42 -18 182 -62 227 -71 133 -27 220 -41 280 -43 25 -1 50 -5 57 -9 6 -4
14 -3 18 3 4 7 12 7 26 0 10 -6 19 -7 19 -3 0 4 18 8 40 8 22 0 40 -2 40 -5 0
-7 43 -5 56 3 5 3 16 2 23 -2 7 -5 28 -5 47 -1 20 5 34 4 34 -1 0 -6 8 -5 19
1 14 7 22 7 26 0 5 -8 11 -8 19 -1 7 6 15 8 19 5 9 -9 57 -12 57 -3 0 5 12 4
26 -1 14 -6 23 -6 20 -2 -2 4 27 7 65 7 38 0 69 2 69 5 0 3 15 6 33 6 17 1 49
5 71 9 21 3 48 8 60 9 12 1 27 6 34 10 7 4 12 5 12 2 0 -3 12 -1 28 5 15 6 36
12 47 14 11 2 29 6 40 8 11 3 27 7 35 9 8 1 17 5 20 8 3 3 30 14 60 24 115 39
389 187 446 241 6 5 27 21 47 35 20 14 37 28 37 33 0 4 -90 7 -200 7 -127 0
-200 4 -200 10 0 6 4 10 8 10 5 0 35 26 66 58 l57 59 217 2 c152 1 218 5 223
13 4 7 19 26 33 42 87 103 226 316 233 355 1 8 5 17 10 20 4 3 10 15 11 26 2
11 9 26 15 34 6 7 12 18 14 25 1 6 14 45 29 86 14 41 27 84 30 95 2 11 10 44
17 72 8 29 14 75 13 103 -1 27 1 50 4 50 3 0 6 12 5 28 0 15 4 47 10 72 12 45
12 138 1 262 -9 108 -33 237 -47 254 -5 6 -7 13 -4 15 7 8 -54 188 -84 246 -5
10 -25 52 -46 93 -21 41 -44 82 -51 91 -8 8 -14 18 -14 22 0 6 -57 89 -100
146 -14 18 -64 73 -111 123 l-86 90 -101 0 c-55 0 -105 -3 -111 -6 -6 -4 -11
-3 -11 1 0 5 -15 7 -34 5 -27 -3 -41 2 -59 19 -13 13 -34 31 -47 39 -12 8 -31
23 -42 33 -23 19 -26 19 187 18 l89 0 -77 49 c-42 28 -81 50 -86 50 -5 0 -11
4 -13 9 -3 10 -228 123 -228 115 0 -2 -19 5 -42 17 -24 12 -43 21 -43 20 0 -4
-59 11 -70 18 -5 3 -14 6 -20 7 -5 1 -39 10 -75 19 -86 21 -117 27 -162 29
-21 0 -38 4 -38 7 0 4 -10 7 -22 8 -74 3 -678 8 -680 5z m374 -898 c25 -8 49
-12 52 -9 3 4 6 1 6 -5 0 -7 8 -12 17 -12 57 0 267 -134 348 -222 80 -86 165
-217 165 -254 0 -8 4 -14 10 -14 5 0 9 -3 8 -7 -1 -5 4 -28 12 -53 7 -25 13
-51 13 -57 0 -7 3 -13 6 -13 5 0 10 -45 15 -155 1 -22 -2 -58 -6 -80 -5 -22
-11 -53 -14 -70 -3 -16 -8 -37 -11 -45 -15 -36 -13 -50 7 -50 11 0 20 -4 20
-9 0 -6 -9 -8 -19 -6 -15 3 -23 -5 -32 -33 -17 -52 -66 -139 -111 -199 -57
-74 -199 -203 -225 -203 -7 0 -13 -4 -13 -10 0 -5 -7 -10 -15 -10 -8 0 -15 -4
-15 -10 0 -5 -3 -9 -7 -8 -5 1 -32 -10 -62 -25 -30 -14 -58 -24 -63 -21 -4 3
-8 1 -8 -4 0 -24 -182 -46 -237 -29 -13 4 -31 9 -41 11 -61 14 -219 96 -286
148 -63 50 -176 170 -176 188 0 5 -6 13 -13 17 -15 9 -94 167 -101 204 -3 13
-11 49 -20 79 -13 51 -16 267 -4 310 3 8 8 29 12 45 4 17 17 55 29 85 12 30
22 58 22 61 0 9 72 121 102 159 35 43 133 140 141 140 4 0 19 10 33 23 43 38
192 115 239 123 8 2 35 9 60 18 58 19 103 19 162 2z m688 -1054 c0 -5 -7 -9
-15 -9 -8 0 -15 4 -15 9 0 4 7 8 15 8 8 0 15 -4 15 -8z m104 -1 c-8 -8 -94 -7
-94 1 0 3 23 6 50 5 28 0 47 -3 44 -6z"/>
<path d="M4923 5119 c-23 -4 -55 -15 -71 -23 -33 -17 -85 -73 -106 -114 -14
-27 -19 -148 -8 -167 4 -5 8 -19 10 -30 4 -30 61 -85 112 -108 30 -14 62 -20
95 -18 55 2 60 2 140 2 74 -1 85 1 85 11 0 5 9 4 19 -2 44 -23 201 -7 201 21
0 5 6 9 14 9 8 0 28 17 45 37 66 80 81 151 50 232 -18 48 -81 121 -105 121 -8
0 -14 4 -14 9 0 11 -76 25 -115 21 -40 -4 -110 -3 -160 2 -22 2 -48 0 -57 -4
-10 -5 -34 -5 -55 0 -21 4 -57 5 -80 1z"/>
<path d="M7045 4641 c9 -8 85 -9 85 -1 0 4 -21 7 -46 7 -25 1 -42 -2 -39 -6z"/>
<path d="M7140 4639 c0 -5 5 -7 10 -4 6 3 10 8 10 11 0 2 -4 4 -10 4 -5 0 -10
-5 -10 -11z"/>
<path d="M7190 4638 c0 -3 9 -6 20 -5 11 1 20 5 20 9 0 3 -9 6 -20 5 -11 -1
-20 -5 -20 -9z"/>
</g>
</svg>
